<?xml version="1.0" standalone="no"?><!DOCTYPE svg PUBLIC "-//W3C//DTD SVG 1.1//EN" "http://www.w3.org/Graphics/SVG/1.1/DTD/svg11.dtd"><svg t="1594525491676" class="icon" viewBox="0 0 1024 1024" version="1.1" xmlns="http://www.w3.org/2000/svg" p-id="713" xmlns:xlink="http://www.w3.org/1999/xlink" width="64" height="64"><defs><style type="text/css"></style></defs><path d="M794.85661235 40.65861531h-565.7132247v209.45629234h565.58377087l0.12945383-209.45629234zM841.97780543 512c-28.22093431 0-47.12119309-20.97152-47.12119308-52.4288s18.90025876-52.4288 47.12119308-52.4288c28.22093431 0 47.12119309 20.97152 47.12119309 52.4288S870.19873975 512 841.97780543 512zM700.48477235 878.61323852H323.51522765V616.72814617h377.09899852l-0.12945382 261.88509235z m141.49303308-576.06953087H182.02219457c-80.13191902 0-141.36357925 68.09271309-141.36357926 157.02749235v314.18443852h188.48477234V983.21193086h565.58377087V773.88509235H983.21193086V459.5712c0.12945383-88.93477925-61.10220642-157.02749235-141.23412543-157.02749235z" fill="#ccc" p-id="714"></path></svg>
