<?xml version="1.0" encoding="UTF-8" standalone="no"?>
<!-- Created with Inkscape (http://www.inkscape.org/) -->

<svg
   xmlns:dc="http://purl.org/dc/elements/1.1/"
   xmlns:cc="http://creativecommons.org/ns#"
   xmlns:rdf="http://www.w3.org/1999/02/22-rdf-syntax-ns#"
   xmlns:svg="http://www.w3.org/2000/svg"
   xmlns="http://www.w3.org/2000/svg"
   xmlns:sodipodi="http://sodipodi.sourceforge.net/DTD/sodipodi-0.dtd"
   xmlns:inkscape="http://www.inkscape.org/namespaces/inkscape"
   width="52.051006mm"
   height="19.98797mm"
   viewBox="0 0 52.051006 19.98797"
   version="1.1"
   id="svg8"
   inkscape:version="0.92.4 (5da689c313, 2019-01-14)"
   sodipodi:docname="spririt_path.svg">
  <defs
     id="defs2" />
  <sodipodi:namedview
     id="base"
     pagecolor="#ffffff"
     bordercolor="#666666"
     borderopacity="1.0"
     inkscape:pageopacity="0.0"
     inkscape:pageshadow="2"
     inkscape:zoom="2.8"
     inkscape:cx="51.516325"
     inkscape:cy="5.6885653"
     inkscape:document-units="mm"
     inkscape:current-layer="layer1"
     showgrid="false"
     inkscape:window-width="1920"
     inkscape:window-height="1011"
     inkscape:window-x="0"
     inkscape:window-y="0"
     inkscape:window-maximized="1"
     fit-margin-top="0"
     fit-margin-left="0"
     fit-margin-right="0"
     fit-margin-bottom="0" />
  <metadata
     id="metadata5">
    <rdf:RDF>
      <cc:Work
         rdf:about="">
        <dc:format>image/svg+xml</dc:format>
        <dc:type
           rdf:resource="http://purl.org/dc/dcmitype/StillImage" />
        <dc:title></dc:title>
      </cc:Work>
    </rdf:RDF>
  </metadata>
  <g
     inkscape:label="Layer 1"
     inkscape:groupmode="layer"
     id="layer1"
     transform="translate(-43.692196,-56.252744)">
    <g
       aria-label="Powered By "
       transform="scale(1.0409322,0.96067739)"
       style="font-style:italic;font-variant:normal;font-weight:500;font-stretch:normal;font-size:10.37836933px;line-height:125%;font-family:'URW Chancery L';-inkscape-font-specification:'URW Chancery L, Medium Italic';font-variant-ligatures:discretionary-ligatures;font-variant-caps:normal;font-variant-numeric:normal;font-feature-settings:normal;text-align:start;letter-spacing:0px;word-spacing:0px;writing-mode:lr-tb;text-anchor:start;fill:#e6e6e6;fill-opacity:1;stroke:none;stroke-width:0.25946271px;stroke-linecap:butt;stroke-linejoin:miter;stroke-opacity:1"
       id="text12">
      <path
         d="m 47.824852,76.351683 -0.425513,0.425513 h 0.726485 c 2.822917,0 2.854052,0 3.715457,-0.415134 l 0.02076,-0.09341 c -0.581188,0.06227 -0.830269,0.07265 -1.743566,0.08303 0.03113,-0.134919 0.06227,-0.269837 0.09341,-0.394378 0.04151,-0.176432 0.08303,-0.352864 0.134918,-0.612324 0.134919,-0.560432 0.145298,-0.622702 0.25946,-1.048215 0.684972,-0.04151 1.255782,-0.207567 1.888863,-0.550053 0.747242,-0.404757 1.214269,-1.131243 1.214269,-1.899242 0,-0.705729 -0.581189,-1.048215 -1.774701,-1.048215 -0.103784,0 -0.217946,0 -0.456648,0.01038 l 0.06227,-0.259459 -0.695351,0.352864 c -0.819891,0.08303 -1.286918,0.228324 -1.795458,0.529297 -0.819891,0.498162 -1.266161,1.203891 -1.266161,2.023782 0,0.300973 0.04151,0.50854 0.176433,0.840648 l 0.778377,-0.467026 c -0.12454,-0.363243 -0.155675,-0.529297 -0.155675,-0.778378 0,-0.550054 0.238702,-1.079351 0.622702,-1.380323 0.352864,-0.269838 0.705729,-0.394378 1.390701,-0.467027 -0.363243,1.629404 -0.892539,3.777727 -1.286917,5.147671 z m 3.570159,-5.230698 c 0.155675,-0.01038 0.321729,-0.02076 0.404756,-0.02076 0.653837,0 1.006702,0.32173 1.006702,0.923675 0,1.100107 -0.736864,1.90962 -1.733188,1.90962 -0.114162,0 -0.197189,-0.01038 -0.363243,-0.04151 z"
         style="font-style:italic;font-variant:normal;font-weight:500;font-stretch:normal;font-size:10.37836933px;font-family:'URW Chancery L';-inkscape-font-specification:'URW Chancery L, Medium Italic';font-variant-ligatures:discretionary-ligatures;font-variant-caps:normal;font-variant-numeric:normal;font-feature-settings:normal;text-align:start;writing-mode:lr-tb;text-anchor:start;stroke-width:0.25946271px;fill:#e6e6e6"
         id="path111"
         inkscape:connector-curvature="0" />
      <path
         d="m 56.335763,72.522065 c -0.415135,0 -1.07935,0.300973 -1.691674,0.757621 -0.664216,0.498162 -1.131242,1.577512 -1.131242,2.604971 0,0.63308 0.352864,1.037837 0.902918,1.037837 0.290594,0 0.581189,-0.103784 1.058594,-0.352865 0.518918,-0.290594 0.861404,-0.550054 1.048215,-0.799134 0.415135,-0.560432 0.747242,-1.577513 0.747242,-2.29362 0,-0.560432 -0.383999,-0.95481 -0.934053,-0.95481 z m -0.539675,0.487783 c 0.415135,0 0.674594,0.404757 0.674594,1.027459 0,0.435891 -0.145297,0.975567 -0.404756,1.484107 -0.290595,0.591567 -0.664216,0.913296 -1.058594,0.913296 -0.425513,0 -0.695351,-0.383999 -0.695351,-0.975567 0,-1.20389 0.757621,-2.449295 1.484107,-2.449295 z"
         style="font-style:italic;font-variant:normal;font-weight:500;font-stretch:normal;font-size:10.37836933px;font-family:'URW Chancery L';-inkscape-font-specification:'URW Chancery L, Medium Italic';font-variant-ligatures:discretionary-ligatures;font-variant-caps:normal;font-variant-numeric:normal;font-feature-settings:normal;text-align:start;writing-mode:lr-tb;text-anchor:start;stroke-width:0.25946271px;fill:#e6e6e6"
         id="path113"
         inkscape:connector-curvature="0" />
      <path
         d="m 57.844681,74.628874 c 0.197189,-0.498162 0.249081,-0.633081 0.321729,-0.767999 0.166054,-0.269838 0.352865,-0.394378 0.612324,-0.394378 0.05189,0 0.186811,0 0.342486,0.01038 0.08303,0.01038 0.176432,0.01038 0.269838,0.01038 0.217946,0 0.290594,-0.01038 0.477405,-0.08303 l -0.352865,0.394378 c -0.44627,0.487784 -0.591567,0.674594 -0.778378,1.017081 -0.269837,0.487783 -0.435891,1.037837 -0.435891,1.473728 0,0.373621 0.228324,0.633081 0.560432,0.633081 0.539675,0 1.151999,-0.435892 2.013404,-1.411459 -0.114162,0.342487 -0.155676,0.550054 -0.155676,0.819892 0,0.373621 0.207567,0.591567 0.560432,0.591567 1.307675,0 3.341835,-2.532323 3.341835,-4.172105 0,-0.280216 -0.08303,-0.456648 -0.259459,-0.57081 -0.25946,0.07265 -0.352865,0.103783 -0.726486,0.269837 0.103784,0.269838 0.134919,0.44627 0.134919,0.726486 0,0.684973 -0.25946,1.494485 -0.684973,2.158701 -0.363243,0.560432 -0.89254,0.996324 -1.214269,0.996324 -0.207567,0 -0.352865,-0.197189 -0.352865,-0.477405 0,-0.44627 0.155676,-0.985946 0.840648,-3.040863 -0.280216,0.09341 -0.394378,0.124541 -0.767999,0.217946 -0.06227,0.197189 -0.103784,0.342486 -0.134919,0.435892 -0.373621,1.245404 -0.477405,1.473728 -0.799134,1.888863 -0.394378,0.518918 -0.95481,0.923675 -1.27654,0.923675 -0.176432,0 -0.280216,-0.176433 -0.280216,-0.456649 0,-0.446269 0.176433,-1.027458 0.467027,-1.556755 0.259459,-0.44627 0.487783,-0.736864 1.068972,-1.318053 v -0.103784 c 0,-0.02076 0,-0.04151 -0.01038,-0.08303 H 60.51192 c -0.166054,0.124541 -0.249081,0.145298 -0.425513,0.145298 -0.300973,0 -0.923675,-0.01038 -1.183135,-0.02076 -0.114162,-0.01038 -0.207567,-0.01038 -0.280216,-0.01038 -0.176432,0 -0.290594,0.03113 -0.352864,0.103783 -0.155676,0.155676 -0.363243,0.633081 -0.601946,1.40108 z"
         style="font-style:italic;font-variant:normal;font-weight:500;font-stretch:normal;font-size:10.37836933px;font-family:'URW Chancery L';-inkscape-font-specification:'URW Chancery L, Medium Italic';font-variant-ligatures:discretionary-ligatures;font-variant-caps:normal;font-variant-numeric:normal;font-feature-settings:normal;text-align:start;writing-mode:lr-tb;text-anchor:start;stroke-width:0.25946271px;fill:#e6e6e6"
         id="path115"
         inkscape:connector-curvature="0" />
      <path
         d="m 67.763158,75.365738 c -0.778377,0.674594 -1.276539,0.965189 -1.670917,0.965189 -0.259459,0 -0.477405,-0.176433 -0.550054,-0.44627 -0.04151,-0.166054 -0.05189,-0.280216 -0.05189,-0.581189 0.467027,-0.290594 0.778378,-0.50854 1.390702,-0.965188 0.560432,-0.425514 0.778378,-0.768 0.778378,-1.235026 0,-0.363243 -0.228325,-0.581189 -0.591568,-0.581189 -0.228324,0 -0.394378,0.05189 -0.63308,0.186811 -0.394378,0.228324 -0.747243,0.50854 -0.965188,0.757621 -0.394378,0.477405 -0.747243,1.619025 -0.747243,2.459673 0,0.612324 0.321729,0.996324 0.851026,0.996324 0.612324,0 1.369945,-0.435892 2.189836,-1.255783 z M 65.52143,74.929847 c 0.176433,-1.110486 0.653838,-1.971891 1.100108,-1.971891 0.176432,0 0.290594,0.176433 0.290594,0.425514 0,0.518918 -0.280216,0.830269 -1.390702,1.546377 z"
         style="font-style:italic;font-variant:normal;font-weight:500;font-stretch:normal;font-size:10.37836933px;font-family:'URW Chancery L';-inkscape-font-specification:'URW Chancery L, Medium Italic';font-variant-ligatures:discretionary-ligatures;font-variant-caps:normal;font-variant-numeric:normal;font-feature-settings:normal;text-align:start;writing-mode:lr-tb;text-anchor:start;stroke-width:0.25946271px;fill:#e6e6e6"
         id="path117"
         inkscape:connector-curvature="0" />
      <path
         d="m 68.280456,76.891358 0.799135,-0.300972 0.778378,-2.957836 c 0.352864,-0.259459 0.591567,-0.363242 0.871783,-0.363242 0.228324,0 0.363242,0.08303 0.550053,0.321729 l 0.311351,-0.985945 c -0.197189,-0.06227 -0.280216,-0.08303 -0.383999,-0.08303 -0.186811,0 -0.404757,0.09341 -0.684973,0.290594 l -0.612324,0.44627 c 0.01038,-0.08303 0.03114,-0.134919 0.03114,-0.166054 0.08303,-0.342486 0.09341,-0.404756 0.09341,-0.456648 0,-0.06227 -0.06227,-0.114162 -0.134919,-0.114162 -0.134919,0 -1.048215,0.44627 -1.681296,0.83027 l -0.03114,0.280215 c 0.560432,-0.290594 0.622702,-0.311351 0.747243,-0.311351 0.134918,0 0.197189,0.07265 0.197189,0.217946 0,0.145297 -0.103784,0.633081 -0.228324,1.079351 z"
         style="font-style:italic;font-variant:normal;font-weight:500;font-stretch:normal;font-size:10.37836933px;font-family:'URW Chancery L';-inkscape-font-specification:'URW Chancery L, Medium Italic';font-variant-ligatures:discretionary-ligatures;font-variant-caps:normal;font-variant-numeric:normal;font-feature-settings:normal;text-align:start;writing-mode:lr-tb;text-anchor:start;stroke-width:0.25946271px;fill:#e6e6e6"
         id="path119"
         inkscape:connector-curvature="0" />
      <path
         d="m 74.411802,75.365738 c -0.778378,0.674594 -1.27654,0.965189 -1.670918,0.965189 -0.259459,0 -0.477405,-0.176433 -0.550053,-0.44627 -0.04151,-0.166054 -0.05189,-0.280216 -0.05189,-0.581189 0.467026,-0.290594 0.778378,-0.50854 1.390701,-0.965188 0.560432,-0.425514 0.778378,-0.768 0.778378,-1.235026 0,-0.363243 -0.228324,-0.581189 -0.591567,-0.581189 -0.228324,0 -0.394378,0.05189 -0.633081,0.186811 -0.394378,0.228324 -0.747242,0.50854 -0.965188,0.757621 -0.394378,0.477405 -0.747242,1.619025 -0.747242,2.459673 0,0.612324 0.321729,0.996324 0.851026,0.996324 0.612324,0 1.369945,-0.435892 2.189836,-1.255783 z m -2.241728,-0.435891 c 0.176432,-1.110486 0.653837,-1.971891 1.100107,-1.971891 0.176432,0 0.290594,0.176433 0.290594,0.425514 0,0.518918 -0.280216,0.830269 -1.390701,1.546377 z"
         style="font-style:italic;font-variant:normal;font-weight:500;font-stretch:normal;font-size:10.37836933px;font-family:'URW Chancery L';-inkscape-font-specification:'URW Chancery L, Medium Italic';font-variant-ligatures:discretionary-ligatures;font-variant-caps:normal;font-variant-numeric:normal;font-feature-settings:normal;text-align:start;writing-mode:lr-tb;text-anchor:start;stroke-width:0.25946271px;fill:#e6e6e6"
         id="path121"
         inkscape:connector-curvature="0" />
      <path
         d="m 79.153094,75.428008 c -0.134919,0.08303 -0.238702,0.155676 -0.290594,0.186811 -0.57081,0.394378 -0.861405,0.560432 -0.95481,0.560432 -0.08303,0 -0.145297,-0.114162 -0.145297,-0.269838 0,-0.342486 0.871783,-4.099456 1.089729,-4.742914 0.228324,-0.622703 0.456648,-0.861405 0.830269,-0.861405 0.134919,0 0.238703,0.02076 0.477405,0.08303 l 0.363243,-0.581189 c -0.155676,-0.03113 -0.238702,-0.04151 -0.332108,-0.04151 -0.249081,0 -0.383999,0.04151 -0.622702,0.176432 -0.259459,0.145297 -0.612324,0.415135 -0.902918,0.684972 -0.50854,0.487784 -0.539675,0.560432 -0.809513,1.629404 -0.01038,0.04151 -0.04151,0.176433 -0.08303,0.332108 -0.186811,-0.04151 -0.342486,-0.06227 -0.425513,-0.06227 -0.321729,0 -1.214269,0.560432 -1.629404,1.01708 -0.352865,0.404757 -0.819891,1.868107 -0.819891,2.584214 0,0.394378 0.207567,0.799135 0.394378,0.799135 0.197189,0 0.653837,-0.280216 1.743566,-1.068972 -0.05189,0.259459 -0.08303,0.560431 -0.08303,0.747242 0,0.207568 0.08303,0.32173 0.228324,0.32173 0.166054,0 1.068972,-0.550054 1.930377,-1.172756 z m -2.03416,0.04151 c -0.882162,0.622702 -1.110486,0.757621 -1.255783,0.757621 -0.145297,0 -0.217946,-0.155676 -0.217946,-0.456648 0,-0.342487 0.06227,-0.736865 0.186811,-1.193513 0.300973,-1.048215 0.705729,-1.567134 1.235026,-1.567134 0.186811,0 0.321729,0.07265 0.539675,0.280216 z"
         style="font-style:italic;font-variant:normal;font-weight:500;font-stretch:normal;font-size:10.37836933px;font-family:'URW Chancery L';-inkscape-font-specification:'URW Chancery L, Medium Italic';font-variant-ligatures:discretionary-ligatures;font-variant-caps:normal;font-variant-numeric:normal;font-feature-settings:normal;text-align:start;writing-mode:lr-tb;text-anchor:start;stroke-width:0.25946271px;fill:#e6e6e6"
         id="path123"
         inkscape:connector-curvature="0" />
      <path
         d="m 81.780443,76.777196 c 0.269838,0 0.280216,0 0.601945,0.01038 h 0.352865 0.363243 c 0.726486,0.02076 0.726486,0.02076 0.89254,0.02076 0.705729,0 1.245404,-0.134919 1.940755,-0.487784 0.934053,-0.467026 1.390701,-1.068972 1.390701,-1.816214 0,-0.32173 -0.155675,-0.622703 -0.415135,-0.819892 -0.217945,-0.166054 -0.446269,-0.228324 -0.944431,-0.280216 1.027458,-0.467026 1.546377,-1.037837 1.546377,-1.702052 0,-0.684973 -0.560432,-0.985945 -1.836971,-0.985945 h -0.166054 l 0.08303,-0.32173 -0.840648,0.363243 c -0.89254,0.134919 -1.390702,0.290595 -1.868107,0.57081 -0.830269,0.508541 -1.255783,1.235026 -1.255783,2.148323 0,0.207567 0.02076,0.363243 0.07265,0.674594 l 0.83027,-0.384 c -0.09341,-0.456648 -0.103784,-0.57081 -0.103784,-0.767999 0,-0.705729 0.217946,-1.141621 0.747243,-1.484107 0.415134,-0.269837 0.830269,-0.394378 1.484106,-0.435891 l -0.767999,3.071997 c -0.435892,1.795458 -0.612324,2.023782 -1.619026,2.127566 z m 2.968214,-3.020105 c 0.207567,-0.02076 0.300972,-0.02076 0.404756,-0.02076 0.799134,0 1.266161,0.363243 1.266161,1.006702 0,0.394378 -0.166054,0.851026 -0.425513,1.141621 -0.280216,0.321729 -0.695351,0.487783 -1.214269,0.487783 -0.259459,0 -0.560432,-0.03113 -1.535999,-0.134919 1.01708,-0.902918 1.183134,-1.151999 1.40108,-2.086052 z m 0.684972,-2.750268 c 0.50854,0.01038 0.622702,0.03114 0.767999,0.103784 0.249081,0.12454 0.404757,0.425513 0.404757,0.757621 0,0.487783 -0.238703,0.985945 -0.601946,1.255782 -0.311351,0.238703 -0.622702,0.332108 -1.183134,0.342487 z"
         style="font-style:italic;font-variant:normal;font-weight:500;font-stretch:normal;font-size:10.37836933px;font-family:'URW Chancery L';-inkscape-font-specification:'URW Chancery L, Medium Italic';font-variant-ligatures:discretionary-ligatures;font-variant-caps:normal;font-variant-numeric:normal;font-feature-settings:normal;text-align:start;writing-mode:lr-tb;text-anchor:start;stroke-width:0.25946271px;fill:#e6e6e6"
         id="path125"
         inkscape:connector-curvature="0" />
      <path
         d="m 87.183521,79.288762 c 0.321729,0.04151 0.778378,0.07265 1.141621,0.07265 0.726485,0 1.14162,-0.197189 1.733187,-0.830269 0.601946,-0.643459 0.643459,-0.757621 1.006702,-2.449295 0.363243,-1.670918 0.560432,-2.449296 0.913297,-3.601295 -0.134919,0.07265 -0.249081,0.134919 -0.290595,0.155676 l -0.363243,0.176432 c -0.05189,0.03114 -0.134919,0.06227 -0.228324,0.114162 l -0.63308,2.521944 c -1.037837,0.643459 -1.089729,0.674594 -1.266161,0.674594 -0.134919,0 -0.228325,-0.145297 -0.228325,-0.332108 0,-0.228324 0.09341,-0.705729 0.290595,-1.442593 0.259459,-1.027459 0.404756,-1.608647 0.404756,-1.702053 0,-0.07265 -0.05189,-0.12454 -0.114162,-0.12454 -0.114162,0 -0.778378,0.352865 -1.650161,0.871783 l -0.03114,0.280216 c 0.487784,-0.249081 0.601946,-0.300973 0.716108,-0.300973 0.103783,0 0.155675,0.06227 0.155675,0.155676 0,0.18681 -0.07265,0.498162 -0.321729,1.411458 -0.249081,0.902918 -0.300973,1.131242 -0.300973,1.40108 0,0.332108 0.155676,0.581189 0.363243,0.581189 0.197189,0 1.027459,-0.498162 1.951133,-1.162378 -0.394378,1.899242 -0.394378,1.899242 -0.518918,2.283241 -0.166054,0.529297 -0.498162,0.726486 -1.172756,0.726486 -0.300972,0 -0.529297,-0.04151 -1.14162,-0.18681 z"
         style="font-style:italic;font-variant:normal;font-weight:500;font-stretch:normal;font-size:10.37836933px;font-family:'URW Chancery L';-inkscape-font-specification:'URW Chancery L, Medium Italic';font-variant-ligatures:discretionary-ligatures;font-variant-caps:normal;font-variant-numeric:normal;font-feature-settings:normal;text-align:start;writing-mode:lr-tb;text-anchor:start;stroke-width:0.25946271px;fill:#e6e6e6"
         id="path127"
         inkscape:connector-curvature="0" />
    </g>
    <g
       aria-label="打印精灵"
       transform="scale(1.0446924,0.95721954)"
       style="font-style:italic;font-variant:normal;font-weight:500;font-stretch:normal;font-size:11.59298325px;line-height:125%;font-family:'URW Chancery L';-inkscape-font-specification:'URW Chancery L, Medium Italic';font-variant-ligatures:normal;font-variant-caps:normal;font-variant-numeric:normal;font-feature-settings:normal;text-align:start;letter-spacing:0px;word-spacing:0px;writing-mode:lr-tb;text-anchor:start;fill:#ececec;fill-opacity:1;stroke:none;stroke-width:0.28982985px;stroke-linecap:butt;stroke-linejoin:miter;stroke-opacity:1"
       id="text16">
      <path
         d="m 46.680486,63.612682 -1.55346,0.394162 0.394162,-1.970807 h 1.472309 l 0.208673,-1.020183 h -1.472308 l 0.452126,-2.249039 h -1.08974 l -0.452127,2.249039 h -1.623017 l -0.208674,1.020183 h 1.623017 l -0.452126,2.249038 c -0.683986,0.173895 -1.298414,0.324604 -1.808505,0.440534 l 0.08115,1.066554 1.507087,-0.394161 -0.533277,2.666386 c -0.03478,0.162302 -0.104337,0.220267 -0.266638,0.220267 -0.139116,0.01159 -0.637614,0.01159 -1.136113,-0.01159 0.08115,0.289824 0.139116,0.74195 0.11593,1.020182 0.811509,0 1.310007,-0.02319 1.715762,-0.208674 0.359382,-0.162301 0.54487,-0.452126 0.6608,-1.008589 l 0.602835,-2.99099 1.680982,-0.452126 z m 7.141278,-3.930021 h -6.248618 l -0.220267,1.078147 h 3.118513 l -1.425937,7.141278 c -0.04637,0.208674 -0.139116,0.278232 -0.359383,0.289825 -0.255045,0 -1.101333,0.01159 -1.86647,-0.03478 0.09274,0.324603 0.197081,0.85788 0.185488,1.182484 1.078147,0 1.831691,-0.02319 2.330189,-0.220267 0.498499,-0.185487 0.730358,-0.533277 0.869474,-1.217263 l 1.425937,-7.141278 h 1.970807 z"
         style="font-style:italic;font-variant:normal;font-weight:500;font-stretch:normal;font-size:11.59298325px;font-family:'URW Chancery L';-inkscape-font-specification:'URW Chancery L, Medium Italic';font-variant-ligatures:normal;font-variant-caps:normal;font-variant-numeric:normal;font-feature-settings:normal;text-align:start;writing-mode:lr-tb;text-anchor:start;stroke-width:0.28982985px;fill:#ececec"
         id="path102"
         inkscape:connector-curvature="0" />
      <path
         d="m 58.957455,59.010268 c -0.869473,0.394161 -2.318596,0.811509 -3.570638,1.101333 l -1.205671,6.063131 c -0.09274,0.440533 -0.42894,0.672393 -0.695579,0.776729 0.127523,0.289825 0.208674,0.869474 0.23186,1.136113 0.359383,-0.185488 0.89266,-0.336197 4.463299,-1.182484 0.01159,-0.23186 0.06956,-0.683987 0.150708,-1.00859 l -3.130105,0.672393 0.556463,-2.793909 h 3.014176 l 0.208673,-1.043368 h -3.014175 l 0.394161,-1.936029 c 1.112927,-0.243452 2.307004,-0.556463 3.280814,-0.927438 z m 5.947201,0.54487 h -4.498078 l -1.970807,9.83085 h 1.089741 l 1.762133,-8.764295 h 2.33019 l -1.147706,5.71534 c -0.03478,0.173895 -0.104336,0.23186 -0.278231,0.23186 -0.173895,0.01159 -0.77673,0.01159 -1.402751,-0.01159 0.11593,0.301418 0.197081,0.834695 0.185488,1.147705 0.811508,0 1.414344,-0.02319 1.843284,-0.231859 0.42894,-0.173895 0.614428,-0.544871 0.730358,-1.112927 z"
         style="font-style:italic;font-variant:normal;font-weight:500;font-stretch:normal;font-size:11.59298325px;font-family:'URW Chancery L';-inkscape-font-specification:'URW Chancery L, Medium Italic';font-variant-ligatures:normal;font-variant-caps:normal;font-variant-numeric:normal;font-feature-settings:normal;text-align:start;writing-mode:lr-tb;text-anchor:start;stroke-width:0.28982985px;fill:#ececec"
         id="path104"
         inkscape:connector-curvature="0" />
      <path
         d="m 69.680965,59.439208 c -0.313011,0.788323 -0.823102,1.912843 -1.20567,2.596829 l 0.626021,0.19708 C 69.50707,61.58391 70.05194,60.517356 70.51566,59.636289 Z m -2.353376,2.596829 c 0.05796,-0.695579 0.02319,-1.750541 -0.127522,-2.538864 l -0.753544,0.162302 c 0.127522,0.811509 0.162301,1.878063 0.06956,2.562049 z m 0.788323,1.576645 h 1.20567 l 0.197081,-1.008589 h -1.20567 l 0.765137,-3.814092 h -0.962218 l -0.765137,3.814092 h -1.565052 l -0.197081,1.008589 H 66.9798 c -0.579649,1.170892 -1.460716,2.550457 -2.202667,3.327186 0.104337,0.301418 0.266639,0.77673 0.301418,1.101334 0.54487,-0.626021 1.170891,-1.565053 1.692575,-2.538863 l -0.765137,3.872056 h 0.962218 l 0.846288,-4.277811 c 0.19708,0.579649 0.417347,1.228856 0.510091,1.611425 l 0.846288,-0.823102 C 69.031758,65.525525 68.3014,64.099588 68.081133,63.774984 Z m 2.585235,3.234443 0.150709,-0.730358 h 3.10692 l -0.150709,0.730358 z m 3.547453,-2.191074 -0.150708,0.730358 h -3.10692 l 0.150709,-0.730358 z m 1.170892,-0.799916 h -5.112506 l -1.112926,5.529853 h 0.996996 l 0.370976,-1.808505 h 3.106919 l -0.162302,0.776729 c -0.02319,0.127523 -0.08115,0.173895 -0.231859,0.173895 -0.127523,0 -0.626021,0 -1.078148,-0.02319 0.05796,0.243453 0.127523,0.626021 0.11593,0.881067 0.707172,0 1.240449,-0.01159 1.599832,-0.162302 0.347789,-0.127523 0.510091,-0.394161 0.602835,-0.869474 z m -1.831692,-1.391158 0.127523,-0.6608 h 2.283818 L 76.14985,61.03904 h -2.283818 l 0.127523,-0.591242 h 2.52727 l 0.150709,-0.788323 h -2.52727 l 0.173894,-0.881067 h -1.020182 l -0.173895,0.881067 h -2.33019 l -0.150708,0.788323 h 2.330189 l -0.127523,0.591242 h -2.051958 l -0.150708,0.765137 h 2.051958 l -0.127523,0.6608 h -2.666386 l -0.162302,0.799916 h 6.515256 l 0.162302,-0.799916 z"
         style="font-style:italic;font-variant:normal;font-weight:500;font-stretch:normal;font-size:11.59298325px;font-family:'URW Chancery L';-inkscape-font-specification:'URW Chancery L, Medium Italic';font-variant-ligatures:normal;font-variant-caps:normal;font-variant-numeric:normal;font-feature-settings:normal;text-align:start;writing-mode:lr-tb;text-anchor:start;stroke-width:0.28982985px;fill:#ececec"
         id="path106"
         inkscape:connector-curvature="0" />
      <path
         d="M 87.360264,59.184163 H 79.094467 L 78.90898,60.14638 h 7.234021 l -0.162302,0.788323 h -6.72393 l -0.150709,0.77673 h 6.723931 l -0.162302,0.799916 h -7.234022 l -0.19708,0.962217 h 8.265797 z m -2.550456,7.697741 c 0.498498,-0.556464 1.147705,-1.379565 1.715762,-2.09833 l -0.846288,-0.544871 c -0.382569,0.672393 -1.078148,1.599832 -1.576646,2.156295 z m -5.866049,-2.608422 c -0.382569,0.718765 -0.973811,1.565053 -1.623018,2.063551 l 0.811509,0.544871 c 0.672393,-0.568057 1.252042,-1.472309 1.680982,-2.260632 z m 3.002582,-0.556463 c -0.730358,2.515677 -1.541867,4.115509 -5.773305,4.834274 0.162301,0.23186 0.336196,0.649207 0.370975,0.927439 2.979397,-0.568056 4.463299,-1.576646 5.40233,-3.025769 0.579649,1.611425 1.866471,2.515678 4.138695,2.909839 0.173895,-0.313011 0.556463,-0.753544 0.823102,-0.996997 -2.631607,-0.278231 -3.976393,-1.3216 -4.324183,-3.18807 0.185488,-0.463719 0.34779,-0.939032 0.498499,-1.460716 z"
         style="font-style:italic;font-variant:normal;font-weight:500;font-stretch:normal;font-size:11.59298325px;font-family:'URW Chancery L';-inkscape-font-specification:'URW Chancery L, Medium Italic';font-variant-ligatures:normal;font-variant-caps:normal;font-variant-numeric:normal;font-feature-settings:normal;text-align:start;writing-mode:lr-tb;text-anchor:start;stroke-width:0.28982985px;fill:#ececec"
         id="path108"
         inkscape:connector-curvature="0" />
    </g>
  </g>
</svg>
